<?xml version="1.0" standalone="no"?>
<!DOCTYPE svg PUBLIC "-//W3C//DTD SVG 20010904//EN"
 "http://www.w3.org/TR/2001/REC-SVG-20010904/DTD/svg10.dtd">
<svg version="1.0" xmlns="http://www.w3.org/2000/svg"
 width="512.000000pt" height="512.000000pt" viewBox="0 0 512.000000 512.000000"
 preserveAspectRatio="xMidYMid meet">
<metadata>
Created by potrace 1.14, written by Peter Selinger 2001-2017
</metadata>
<g transform="translate(0.000000,512.000000) scale(0.100000,-0.100000)"
fill="#000000" stroke="none">
<path d="M2315 5100 c-80 -9 -148 -18 -185 -25 -266 -52 -440 -104 -620 -187
-36 -17 -74 -34 -85 -38 -11 -4 -60 -31 -109 -59 -49 -28 -91 -51 -93 -51 -4
0 -154 -103 -223 -154 -71 -52 -207 -174 -292 -262 -327 -338 -562 -787 -657
-1254 -39 -192 -49 -317 -46 -565 3 -187 10 -260 40 -435 28 -166 113 -425
197 -600 219 -462 520 -801 962 -1086 251 -162 634 -305 941 -350 22 -3 51 -8
65 -10 109 -19 467 -26 606 -12 355 36 713 150 1018 324 75 43 255 160 266
173 3 3 23 19 45 36 22 16 48 36 57 45 9 8 47 42 85 75 100 88 294 304 349
390 10 17 24 36 31 43 7 7 25 34 40 60 15 26 37 62 50 80 37 56 129 242 178
360 39 97 103 296 120 380 18 82 45 248 53 327 9 87 8 489 -1 530 -3 11 -8 45
-11 75 -22 177 -83 406 -158 595 -110 278 -278 545 -489 777 -73 81 -120 127
-260 249 -47 41 -216 160 -300 211 -283 172 -669 309 -965 343 -27 3 -60 8
-74 11 -41 9 -459 12 -535 4z"/>
</g>
</svg>
